<?xml version="1.0" standalone="no"?>
<!DOCTYPE svg PUBLIC "-//W3C//DTD SVG 20010904//EN"
 "http://www.w3.org/TR/2001/REC-SVG-20010904/DTD/svg10.dtd">
<svg version="1.0" xmlns="http://www.w3.org/2000/svg"
 width="401.000000pt" height="401.000000pt" viewBox="0 0 401.000000 401.000000"
 preserveAspectRatio="xMidYMid meet">
<metadata>
Created by potrace 1.14, written by Peter Selinger 2001-2017
</metadata>
<g transform="translate(0.000000,401.000000) scale(0.100000,-0.100000)"
fill="#000000" stroke="none">
<path d="M867 2853 c-7 -12 -42 -472 -36 -476 2 -3 76 4 164 14 87 10 160 17
161 16 4 -6 23 -931 19 -935 -3 -3 -74 -1 -157 5 -84 6 -155 9 -158 6 -5 -5
-28 -256 -29 -323 l-1 -46 457 38 c251 21 458 39 459 41 2 3 -18 231 -21 235
-1 2 -74 8 -161 14 -88 6 -161 12 -164 15 -4 3 59 905 64 910 1 1 120 -217
266 -485 145 -268 275 -508 289 -534 l26 -48 91 0 91 0 213 520 c117 286 216
520 219 520 4 0 33 -181 65 -402 32 -222 61 -416 64 -432 l5 -29 -171 6 -172
7 0 -190 0 -190 58 6 c31 3 245 20 475 39 230 18 420 35 421 37 2 2 -2 62 -7
135 -9 121 -12 132 -31 137 -12 3 -92 6 -178 6 l-157 0 -5 43 c-6 46 -26 750
-26 890 l0 87 170 0 170 0 0 185 0 185 -373 0 -373 0 -194 -570 c-106 -313
-196 -570 -200 -570 -3 0 -115 215 -250 478 -134 262 -265 519 -292 570 l-50
92 -368 0 c-203 0 -371 -3 -373 -7z"/>
<path d="M3003 848 c1 -9 -18 -14 -65 -16 -38 -2 -68 -7 -68 -12 0 -6 -6 -10
-14 -10 -14 0 -77 -30 -86 -41 -3 -3 -21 -9 -41 -13 -21 -4 -42 -12 -48 -20
-6 -7 -29 -19 -51 -26 -22 -7 -40 -17 -40 -22 0 -4 -8 -8 -17 -8 -10 0 -47
-11 -83 -24 -36 -13 -91 -32 -122 -41 -32 -10 -58 -22 -58 -27 0 -4 -11 -8
-25 -8 -32 0 -111 -19 -152 -36 -17 -8 -36 -14 -42 -14 -6 0 -11 -4 -11 -9 0
-4 -16 -11 -36 -14 -46 -8 -165 -88 -240 -161 -12 -12 -36 -35 -55 -52 -37
-34 -57 -58 -77 -94 -12 -19 -12 -24 0 -31 7 -5 20 -8 28 -8 10 0 9 3 -5 10
-22 10 127 5 250 -9 96 -11 345 3 481 28 280 50 541 172 790 370 58 46 79 58
85 48 5 -7 9 -11 10 -8 0 3 2 14 4 24 4 23 102 124 127 132 25 7 23 21 -4 30
-13 4 -25 10 -28 15 -5 8 -173 31 -227 31 -13 0 -23 7 -23 14 0 11 -19 14 -80
14 -59 0 -79 -3 -77 -12z"/>
<path d="M3179 493 c-13 -16 -12 -17 4 -4 9 7 17 15 17 17 0 8 -8 3 -21 -13z"/>
<path d="M3085 435 c-33 -24 -95 -63 -137 -86 -43 -23 -78 -46 -78 -50 0 -5
-12 -15 -27 -23 -16 -8 -24 -15 -19 -16 21 -1 317 187 332 211 12 20 -15 7
-71 -36z"/>
<path d="M2729 225 c-41 -19 -115 -46 -165 -59 -49 -14 -82 -25 -74 -25 52 -3
320 93 320 114 0 7 2 8 -81 -30z"/>
<path d="M2438 133 c6 -2 18 -2 25 0 6 3 1 5 -13 5 -14 0 -19 -2 -12 -5z"/>
<path d="M2388 123 c6 -2 18 -2 25 0 6 3 1 5 -13 5 -14 0 -19 -2 -12 -5z"/>
<path d="M2323 113 c9 -2 25 -2 35 0 9 3 1 5 -18 5 -19 0 -27 -2 -17 -5z"/>
<path d="M2162 100 c-34 -4 -65 -9 -68 -12 -7 -7 117 2 171 12 l40 8 -40 0
c-22 -1 -68 -4 -103 -8z"/>
</g>
</svg>
